HIERARCHY
ROOT Hips
{
  OFFSET 267.745 86.9975 -272.335
  CHANNELS 6 Xposition Yposition Zposition Zrotation Xrotation Yrotation
  JOINT LeftUpLeg
  {
    OFFSET 8.64259 1.95398 -2.38835
    CHANNELS 3 Zrotation Xrotation Yrotation
    JOINT LeftLeg
    {
      OFFSET 43.7702 0 0
      CHANNELS 3 Zrotation Xrotation Yrotation
      JOINT LeftFoot
      {
        OFFSET 40.6238 0 0
        CHANNELS 3 Zrotation Xrotation Yrotation
        JOINT LeftToeBase
        {
          OFFSET 12.7242 0 0
          CHANNELS 3 Zrotation Xrotation Yrotation
          End Site
          {
            OFFSET 0 0 0
          }
        }
      }
    }
  }
  JOINT RightUpLeg
  {
    OFFSET -8.2249 1.95398 -2.59336
    CHANNELS 3 Zrotation Xrotation Yrotation
    JOINT RightLeg
    {
      OFFSET 43.5653 0 0
      CHANNELS 3 Zrotation Xrotation Yrotation
      JOINT RightFoot
      {
        OFFSET 40.6238 0 0
        CHANNELS 3 Zrotation Xrotation Yrotation
        JOINT RightToeBase
        {
          OFFSET 12.7242 0 0
          CHANNELS 3 Zrotation Xrotation Yrotation
          End Site
          {
            OFFSET 0 0 0
          }
        }
      }
    }
  }
  JOINT Spine
  {
    OFFSET 0.165834 0.87714 6.61349
    CHANNELS 3 Zrotation Xrotation Yrotation
    JOINT Spine1
    {
      OFFSET 7.38963 1.71661e-005 0
      CHANNELS 3 Zrotation Xrotation Yrotation
      JOINT Spine2
      {
        OFFSET 11.9445 1.14441e-005 0
        CHANNELS 3 Zrotation Xrotation Yrotation
        JOINT Spine3
        {
          OFFSET 14.7254 4.19617e-005 0
          CHANNELS 3 Zrotation Xrotation Yrotation
          JOINT Spine4
          {
            OFFSET 10.9679 0 0
            CHANNELS 3 Zrotation Xrotation Yrotation
            JOINT RightShoulder
            {
              OFFSET 2.46616 -1.6653 3.69651
              CHANNELS 3 Zrotation Xrotation Yrotation
              JOINT RightArm
              {
                OFFSET 13.0012 0 0
                CHANNELS 3 Zrotation Xrotation Yrotation
                JOINT RightForeArm
                {
                  OFFSET 28.7848 1.52588e-005 0
                  CHANNELS 3 Zrotation Xrotation Yrotation
                  JOINT RightHand
                  {
                    OFFSET 26.5688 1.52588e-005 0
                    CHANNELS 3 Zrotation Xrotation Yrotation
                    End Site
                    {
                      OFFSET 0 0 0
                    }
                  }
                }
              }
            }
            JOINT LeftShoulder
            {
              OFFSET 2.38034 -1.29275 -3.7523
              CHANNELS 3 Zrotation Xrotation Yrotation
              JOINT LeftArm
              {
                OFFSET 16.3182 6.10352e-005 0
                CHANNELS 3 Zrotation Xrotation Yrotation
                JOINT LeftForeArm
                {
                  OFFSET 27.0901 0 0
                  CHANNELS 3 Zrotation Xrotation Yrotation
                  JOINT LeftHand
                  {
                    OFFSET 24.5451 1.52588e-005 0
                    CHANNELS 3 Zrotation Xrotation Yrotation
                    End Site
                    {
                      OFFSET 0 0 0
                    }
                  }
                }
              }
            }
            JOINT Neck
            {
              OFFSET 5.0226 -0.0266342 0
              CHANNELS 3 Zrotation Xrotation Yrotation
              JOINT Head
              {
                OFFSET 6.69364 2.86102e-005 0
                CHANNELS 3 Zrotation Xrotation Yrotation
                End Site
                {
                  OFFSET 0 0 0
                }
              }
            }
          }
        }
      }
    }
  }
}
MOTION
Frames:	14
Frame Time:	0.0416667
170.704 97.4709 168.307 -94.481 24.5664 -86.3279 177.745 1.53548 86.5086 -12.3279 27.2715 5.29527 54.008 0.30444 10.7793 41.9137 -1.4687 0.504534 172.3 3.75048 87.4409 -21.078 8.97239 2.33782 61.9401 8.84397 15.3065 26.7686 0.276332 2.07133 -1.93632 6.79971 -90.1794 13.2849 -3.9288 0.135147 1.61981 -3.91904 0.308194 -20.9607 -3.78752 -1.05361 -0.948065 -3.78752 -1.05361 100.632 -51.0232 -84.5314 35.5709 -18.2045 11.1629 4.89576 8.77466 -86.4064 -5.33677 -0.22375 -0.328724 -79.2227 -52.7295 94.8426 -23.3688 30.3648 -4.97352 -23.5739 -14.4766 -71.9858 9.12257 -0.572338 -9.15415 -3.43131 1.01754 -2.55752 -13.4585 0.893166 4.88287 
170.758 97.5086 168.367 -94.0605 24.9651 -86.3687 177.811 2.21914 86.4666 -13.1805 27.0375 5.39933 55.0264 1.33841 12.6686 40.3023 -1.26795 -1.41741 172.349 4.18138 87.5948 -20.8578 8.07443 2.4874 61.7721 8.49979 14.4002 26.9729 0.256716 1.81752 -1.90611 6.79319 -90.1734 13.2978 -3.86602 0.139948 1.6326 -3.85612 0.310218 -20.9465 -3.72909 -1.03007 -0.933871 -3.7291 -1.03009 100.882 -51.1545 -84.143 35.4763 -18.6156 10.5394 5.1497 8.80693 -86.1633 -5.8317 -0.246487 -0.282195 -81.2422 -54.9768 91.9949 -21.8966 39.1646 -1.36627 -58.9092 -19.8392 -88.7966 27.235 -1.54491 -9.97098 -2.20463 1.03615 -3.11471 -15.0798 0.895868 5.28039 
170.826 97.5288 168.348 -94.5768 25.2513 -86.2807 177.889 1.64275 86.3541 -12.8896 26.899 5.29491 54.6796 1.117 12.6791 40.7039 -1.31787 -1.22003 172.363 3.74144 87.3953 -20.9092 8.92626 2.26898 62.0793 8.72254 16.0917 25.7796 0.539515 1.76848 -1.83664 6.83907 -90.1271 13.206 -3.7062 0.207774 1.54027 -3.69346 0.370911 -21.0356 -3.59706 -0.917183 -1.02299 -3.59707 -0.917185 101.14 -51.8169 -83.7345 34.8948 -18.4353 10.5545 5.3468 8.75089 -86.1777 -6.03757 -0.252569 -0.332234 -81.649 -55.1225 91.422 -22.0847 41.3616 -0.765032 -51.6997 -21.7554 -87.2412 20.841 -1.59999 -11.0977 -1.9476 0.740924 -3.52002 -15.658 0.658073 5.02441 
170.808 97.564 168.278 -95.6148 25.4462 -86.4269 177.84 -0.250189 85.8216 -10.7925 26.9065 5.02682 54.0379 0.945241 12.7194 40.5249 -1.29222 -1.58098 171.922 3.15557 86.5488 -21.5451 8.71176 2.26768 62.6326 8.86723 16.8241 24.8223 0.788645 1.57376 -1.81174 6.93651 -90.0155 13.0144 -3.60411 0.409869 1.34831 -3.58256 0.568291 -21.2262 -3.56044 -0.693681 -1.21357 -3.56044 -0.693682 101.478 -51.0143 -83.2273 36.0288 -18.5494 10.2786 5.68559 8.6633 -85.7265 -6.41919 -0.249907 -0.701779 -81.8041 -54.7823 91.1776 -20.9996 30.5407 -2.93141 -23.3876 -15.8987 -73.4017 13.7481 -1.63757 -15.5798 -1.5786 0.618479 -3.67485 -16.2501 0.60998 4.37493 
170.793 97.6393 168.222 -96.847 26.1297 -86.3655 177.842 -1.52865 85.2344 -10.4827 26.1761 5.1002 53.8795 0.673101 12.5705 40.6638 -1.3097 -1.57194 171.555 2.30361 85.823 -21.5863 7.22664 2.29391 62.8191 8.34616 15.9146 25.2163 0.67311 1.75472 -1.72943 7.03461 -89.9387 12.8182 -3.40491 0.529892 1.15157 -3.37833 0.679396 -21.4191 -3.40659 -0.519152 -1.40641 -3.40658 -0.519151 101.731 -50.3768 -82.8424 36.6843 -18.5874 10.0798 5.70565 8.66688 -85.165 -6.31728 -0.240519 -0.81149 -81.8756 -54.7253 91.0714 -21.3304 28.8187 -2.98635 -21.3444 -15.0287 -72.73 14.0795 -1.91423 -16.9358 -1.00683 0.626799 -2.90816 -16.8825 0.683532 2.85668 
170.855 97.6899 168.129 -98.309 26.7549 -86.5425 177.949 -2.83866 84.4478 -10.3563 25.8621 4.75954 53.7331 0.499434 12.7231 40.8887 -1.34404 -0.89606 171.099 1.70484 84.676 -22.4265 6.15158 2.15519 63.0533 8.43788 16.2916 25.4574 0.586401 2.0084 -1.66936 7.17235 -89.8291 12.5441 -3.23492 0.716653 0.876945 -3.20027 0.858465 -21.6905 -3.30064 -0.289788 -1.6779 -3.30061 -0.289785 101.565 -50.4806 -83.0997 36.4125 -18.4616 10.2958 6.29967 8.59093 -85.5711 -6.86701 -0.257485 -0.877796 -81.939 -54.9477 90.9953 -21.233 28.9382 -2.95607 -19.8238 -15.044 -72.5395 16.5561 -2.59384 -19.3218 0.080746 0.696916 -1.95283 -18.1341 0.78382 1.48691 
170.851 97.7328 168.04 -99.8295 27.5949 -86.5777 178.006 -4.18242 83.6848 -10.2364 25.0038 4.55934 54.2317 0.763411 12.76 40.297 -1.26701 -1.3731 170.799 1.02501 83.6938 -23.2379 5.1112 1.86693 63.743 8.20173 16.6264 25.0829 0.759339 1.30977 -1.56592 7.31904 -89.7183 12.251 -2.97872 0.896136 0.583084 -2.93639 1.02646 -21.9795 -3.11021 -0.0413709 -1.96684 -3.11022 -0.041371 101.825 -50.4904 -82.696 36.4481 -18.3183 10.0205 5.91011 8.57443 -85.3995 -6.25655 -0.23591 -0.859651 -81.8407 -54.3524 91.0968 -22.0569 29.067 -3.04743 -19.77 -15.3284 -72.6181 17.8598 -2.91499 -20.1044 0.768636 0.807367 -1.44314 -18.4706 0.97895 0.265644 
170.843 97.7692 167.964 -101.369 28.4154 -86.6858 177.791 -5.49552 82.6903 -10.121 24.1106 4.41186 54.3009 0.71694 12.768 40.3471 -1.27358 -1.33722 170.194 0.400325 82.3988 -23.8568 3.27828 1.85144 64.1524 7.69538 15.8271 25.4587 0.632042 1.62776 -1.46599 7.44488 -89.6016 11.9997 -2.72673 1.09127 0.331029 -2.67604 1.21028 -22.2268 -2.92855 0.220673 -2.21412 -2.92855 0.220675 101.881 -50.6103 -82.6087 36.4206 -18.0396 10.154 5.80456 8.47676 -85.6516 -6.31067 -0.267135 -0.27418 -82.2136 -53.9694 90.5301 -23.1541 28.4362 -2.6565 -19.287 -15.2095 -72.46 18.0885 -3.00315 -20.4082 1.68785 0.700609 -1.04631 -19.6187 0.94145 -0.606876 
170.903 97.8246 167.857 -102.697 29.2015 -86.7984 177.811 -6.62049 81.9448 -9.9435 23.5118 4.0328 54.1883 0.593412 13.0297 40.7938 -1.32799 -1.39089 170.011 0.0915649 81.4372 -24.8242 2.23181 1.48683 64.3556 7.76124 16.126 25.6276 0.658523 1.06965 -1.40458 7.59314 -89.5024 11.7033 -2.56018 1.26027 0.0341623 -2.50222 1.37175 -22.5203 -2.82051 0.432037 -2.50767 -2.82048 0.432042 101.951 -50.4758 -82.5011 36.3849 -18.2471 9.82929 5.88738 8.56532 -85.5596 -5.73452 -0.21776 -0.8327 -81.8756 -54.0116 91.0233 -22.6904 28.7129 -3.0959 -19.786 -15.2568 -72.6243 17.807 -2.87183 -19.9079 2.10238 1.04315 -0.786533 -19.3985 1.29332 -0.993079 
170.865 97.8379 167.758 -104.217 29.8077 -86.815 177.558 -7.93054 81.0445 -9.82389 22.7323 3.88036 54.419 0.690138 13.0128 40.5206 -1.29461 -1.35861 169.484 -0.614074 80.2464 -25.4653 1.27091 1.35518 64.9318 7.46965 16.1157 25.4019 0.68539 1.29619 -1.36433 7.70937 -89.3996 11.4713 -2.43393 1.44354 -0.198292 -2.36804 1.54928 -22.75 -2.75517 0.6449 -2.73733 -2.75518 0.644895 101.861 -50.4281 -82.6407 36.772 -18.4059 10.0504 5.09766 8.55575 -85.6674 -6.14604 -0.275576 0.0515649 -81.876 -54.0873 91.0279 -22.9362 28.2726 -2.57594 -19.5237 -14.6985 -72.5416 15.9939 -2.49447 -19.1569 3.94909 0.765904 -0.501914 -22.1275 1.02214 -1.10495 
170.881 97.8862 167.711 -105.129 30.3089 -87.0835 177.311 -8.63792 80.2027 -9.69267 22.2319 3.66631 54.3666 0.591141 13.2969 40.3432 -1.27481 -1.19635 168.99 -0.739934 79.133 -26.0798 0.675595 1.31184 65.3323 7.38601 16.4015 24.7728 0.779577 1.75223 -1.34052 7.82709 -89.2986 11.2362 -2.34145 1.62743 -0.433796 -2.26755 1.7289 -22.983 -2.72225 0.848164 -2.97036 -2.72224 0.848165 101.839 -50.722 -82.673 36.4051 -18.6438 9.4617 5.10096 8.65886 -85.2671 -5.88538 -0.246463 -0.293136 -81.5713 -54.0796 91.4691 -22.4567 28.0392 -3.12248 -20.0165 -14.1565 -72.2063 12.5357 -1.71682 -17.0765 4.40207 0.815978 -0.788695 -22.3518 1.06071 -0.699953 
170.859 97.9884 167.763 -105.95 30.4844 -87.3069 176.781 -9.205 79.3446 -9.64792 21.6461 3.6226 54.3334 0.655755 13.515 40.597 -1.29847 -1.84887 168.865 -0.322885 78.3 -27.192 -2.69658 1.15381 63.0695 7.90618 13.9979 29.7927 -0.405077 1.86469 -1.34432 7.99605 -89.2322 10.8988 -2.32151 1.74583 -0.771382 -2.24243 1.84631 -23.3196 -2.7388 0.967127 -3.30691 -2.7388 0.967127 101.884 -51.0797 -82.6011 35.6403 -18.2905 8.615 4.9034 8.7197 -84.665 -4.04802 -0.135125 -1.60044 -81.2847 -54.5498 91.9116 -21.6703 28.1751 -4.00315 -21.9739 -13.4547 -71.2416 -1.14986 -0.267556 -11.0198 5.50425 0.873447 -1.56951 -22.3878 1.07311 0.526101 
171.002 97.8737 167.901 -106.386 30.9547 -87.7256 176.194 -9.2571 78.4445 -9.5855 21.2974 3.37558 53.9847 0.767904 14.2927 40.9478 -1.34959 -1.12838 168.357 0.498192 77.3194 -28.3973 -4.96915 1.41675 63.2114 7.00851 11.6953 31.5265 -0.823786 2.21044 -1.27041 8.16369 -89.1833 10.5621 -2.1551 1.81667 -1.10842 -2.07306 1.90974 -23.6535 -2.60138 1.0848 -3.64087 -2.60138 1.0848 102.076 -51.1429 -82.3052 35.2348 -17.0117 8.5655 4.77937 8.4532 -84.9625 -2.83875 -0.0809947 -2.33043 -81.7356 -54.6568 91.2684 -21.784 26.0984 -4.54351 -16.5618 -11.3016 -69.5106 -5.40805 0.146288 -13.2889 5.2819 0.918718 -2.62822 -20.8969 1.05308 2.31789 
171.663 97.9173 168.109 -107.719 32.9874 -86.0786 177.511 -9.94479 79.4506 -9.34286 20.4482 2.86817 53.5662 0.235088 14.1562 41.1412 -1.36928 -1.59142 168.972 0.309526 78.1501 -28.5386 -5.9313 0.975385 62.6116 6.80853 11.8896 31.2198 -0.760212 2.3254 -1.05722 8.53677 -89.2589 9.81098 -1.77149 1.61208 -1.85987 -1.69886 1.68847 -24.401 -2.17405 1.00507 -4.38832 -2.17408 1.00505 101.862 -52.0315 -82.6305 33.2392 -14.6321 6.72407 6.40795 8.48345 -83.702 3.86337 -0.0515226 -5.98255 -82.0259 -55.1778 90.8862 -21.4506 23.8091 -5.0596 -16.8285 -11.3257 -69.864 -2.89859 -0.0458633 -12.9976 2.68944 1.97681 -3.88769 -14.9184 2.20808 3.9741 
